HIERARCHY
ROOT Hips
{
  OFFSET 5.72205e-005 65.662 3.42586
  CHANNELS 6 Xposition Yposition Zposition Zrotation Xrotation Yrotation
  JOINT Chest
  {
    OFFSET 0 8.7983 -4.7612
    CHANNELS 6 Xposition Yposition Zposition Zrotation Xrotation Yrotation
    JOINT Chest2
    {
      OFFSET 0 8.0291 0.4195
      CHANNELS 6 Xposition Yposition Zposition Zrotation Xrotation Yrotation
      JOINT Chest3
      {
        OFFSET 0 9.9351 -2.2114
        CHANNELS 6 Xposition Yposition Zposition Zrotation Xrotation Yrotation
        JOINT Neck
        {
          OFFSET 0 22.3885 -0.4656
          CHANNELS 6 Xposition Yposition Zposition Zrotation Xrotation Yrotation
          JOINT Head
          {
            OFFSET -0.0001 12.643 3.4389
            CHANNELS 6 Xposition Yposition Zposition Zrotation Xrotation Yrotation
            End Site
            {
              OFFSET 0.0001 17.6655 0.5274
            }
          }
        }
        JOINT LeftCollar
        {
          OFFSET 2.2603 21.606 7.4023
          CHANNELS 6 Xposition Yposition Zposition Zrotation Xrotation Yrotation
          JOINT LeftShoulder
          {
            OFFSET 13.5163 -1.1332 -5.0146
            CHANNELS 6 Xposition Yposition Zposition Zrotation Xrotation Yrotation
            JOINT LeftElbow
            {
              OFFSET -0.0995 -28.05 -0.2431
              CHANNELS 6 Xposition Yposition Zposition Zrotation Xrotation Yrotation
              JOINT LeftWrist
              {
                OFFSET 0.0679 -23.3996 -0.1402
                CHANNELS 6 Xposition Yposition Zposition Zrotation Xrotation Yrotation
                JOINT LeftFinger1
                {
                  OFFSET 0.7932 -9.069 2.5189
                  CHANNELS 6 Xposition Yposition Zposition Zrotation Xrotation Yrotation
                  JOINT LeftFinger11
                  {
                    OFFSET -0.8272 -3.3923 0.5977
                    CHANNELS 6 Xposition Yposition Zposition Zrotation Xrotation Yrotation
                    JOINT LeftFinger12
                    {
                      OFFSET -0.5649 -2.3158 0.4082
                      CHANNELS 6 Xposition Yposition Zposition Zrotation Xrotation Yrotation
                      End Site
                      {
                        OFFSET -0.4919 -1.6479 0.2673
                      }
                    }
                  }
                }
                JOINT LeftFinger2
                {
                  OFFSET 0.9159 -9.2044 0.2193
                  CHANNELS 6 Xposition Yposition Zposition Zrotation Xrotation Yrotation
                  JOINT LeftFinger21
                  {
                    OFFSET 0.0117 -4.1944 -0.0248
                    CHANNELS 6 Xposition Yposition Zposition Zrotation Xrotation Yrotation
                    JOINT LeftFinger22
                    {
                      OFFSET 0.0071 -2.3249 -0.0142
                      CHANNELS 6 Xposition Yposition Zposition Zrotation Xrotation Yrotation
                      End Site
                      {
                        OFFSET -0.1475 -2.0882 0.0028
                      }
                    }
                  }
                }
                JOINT LeftFinger3
                {
                  OFFSET 0.6113 -8.7231 -2.0637
                  CHANNELS 6 Xposition Yposition Zposition Zrotation Xrotation Yrotation
                  JOINT LeftFinger31
                  {
                    OFFSET -0.1927 -3.8059 -0.2383
                    CHANNELS 6 Xposition Yposition Zposition Zrotation Xrotation Yrotation
                    JOINT LeftFinger32
                    {
                      OFFSET -0.1091 -2.1688 -0.1362
                      CHANNELS 6 Xposition Yposition Zposition Zrotation Xrotation Yrotation
                      End Site
                      {
                        OFFSET -0.2358 -1.9176 -0.0906
                      }
                    }
                  }
                }
                JOINT LeftFinger4
                {
                  OFFSET -0.6151 -8.0947 -3.5641
                  CHANNELS 6 Xposition Yposition Zposition Zrotation Xrotation Yrotation
                  JOINT LeftFinger41
                  {
                    OFFSET -0.4882 -2.341 -0.6462
                    CHANNELS 6 Xposition Yposition Zposition Zrotation Xrotation Yrotation
                    JOINT LeftFinger42
                    {
                      OFFSET -0.3575 -1.7167 -0.4742
                      CHANNELS 6 Xposition Yposition Zposition Zrotation Xrotation Yrotation
                      End Site
                      {
                        OFFSET -0.4187 -1.5237 -0.3496
                      }
                    }
                  }
                }
                JOINT LeftFinger0
                {
                  OFFSET -1.42 -1.8761 1.4223
                  CHANNELS 6 Xposition Yposition Zposition Zrotation Xrotation Yrotation
                  JOINT LeftFinger01
                  {
                    OFFSET -1.1471 -3.4929 2.6334
                    CHANNELS 6 Xposition Yposition Zposition Zrotation Xrotation Yrotation
                    JOINT LeftFinger02
                    {
                      OFFSET -0.823 -2.3 1.6571
                      CHANNELS 6 Xposition Yposition Zposition Zrotation Xrotation Yrotation
                      End Site
                      {
                        OFFSET -0.5822 -1.6914 1.1582
                      }
                    }
                  }
                }
              }
            }
          }
        }
        JOINT RightCollar
        {
          OFFSET -2.2603 21.606 7.4023
          CHANNELS 6 Xposition Yposition Zposition Zrotation Xrotation Yrotation
          JOINT RightShoulder
          {
            OFFSET -13.5187 -1.1334 -5.0155
            CHANNELS 6 Xposition Yposition Zposition Zrotation Xrotation Yrotation
            JOINT RightElbow
            {
              OFFSET 0.0994 -28.0499 -0.2431
              CHANNELS 6 Xposition Yposition Zposition Zrotation Xrotation Yrotation
              JOINT RightWrist
              {
                OFFSET -0.0679 -23.3996 -0.1402
                CHANNELS 6 Xposition Yposition Zposition Zrotation Xrotation Yrotation
                JOINT RightFinger1
                {
                  OFFSET -0.7932 -9.0691 2.5189
                  CHANNELS 6 Xposition Yposition Zposition Zrotation Xrotation Yrotation
                  JOINT RightFinger11
                  {
                    OFFSET 0.8272 -3.3923 0.5977
                    CHANNELS 6 Xposition Yposition Zposition Zrotation Xrotation Yrotation
                    JOINT RightFinger12
                    {
                      OFFSET 0.565 -2.3158 0.4082
                      CHANNELS 6 Xposition Yposition Zposition Zrotation Xrotation Yrotation
                      End Site
                      {
                        OFFSET 0.4919 -1.6479 0.2673
                      }
                    }
                  }
                }
                JOINT RightFinger2
                {
                  OFFSET -0.916 -9.2044 0.2193
                  CHANNELS 6 Xposition Yposition Zposition Zrotation Xrotation Yrotation
                  JOINT RightFinger21
                  {
                    OFFSET -0.0117 -4.1944 -0.0248
                    CHANNELS 6 Xposition Yposition Zposition Zrotation Xrotation Yrotation
                    JOINT RightFinger22
                    {
                      OFFSET -0.0071 -2.3249 -0.0142
                      CHANNELS 6 Xposition Yposition Zposition Zrotation Xrotation Yrotation
                      End Site
                      {
                        OFFSET 0.1475 -2.0882 0.0028
                      }
                    }
                  }
                }
                JOINT RightFinger3
                {
                  OFFSET -0.6113 -8.7231 -2.0637
                  CHANNELS 6 Xposition Yposition Zposition Zrotation Xrotation Yrotation
                  JOINT RightFinger31
                  {
                    OFFSET 0.1927 -3.8059 -0.2383
                    CHANNELS 6 Xposition Yposition Zposition Zrotation Xrotation Yrotation
                    JOINT RightFinger32
                    {
                      OFFSET 0.1091 -2.1688 -0.1362
                      CHANNELS 6 Xposition Yposition Zposition Zrotation Xrotation Yrotation
                      End Site
                      {
                        OFFSET 0.2358 -1.9176 -0.0906
                      }
                    }
                  }
                }
                JOINT RightFinger4
                {
                  OFFSET 0.6151 -8.0947 -3.564
                  CHANNELS 6 Xposition Yposition Zposition Zrotation Xrotation Yrotation
                  JOINT RightFinger41
                  {
                    OFFSET 0.4882 -2.341 -0.6462
                    CHANNELS 6 Xposition Yposition Zposition Zrotation Xrotation Yrotation
                    JOINT RightFinger42
                    {
                      OFFSET 0.3574 -1.7166 -0.4742
                      CHANNELS 6 Xposition Yposition Zposition Zrotation Xrotation Yrotation
                      End Site
                      {
                        OFFSET 0.4187 -1.5237 -0.3496
                      }
                    }
                  }
                }
                JOINT RightFinger0
                {
                  OFFSET 1.4199 -1.8761 1.4221
                  CHANNELS 6 Xposition Yposition Zposition Zrotation Xrotation Yrotation
                  JOINT RightFinger01
                  {
                    OFFSET 1.1472 -3.4929 2.6336
                    CHANNELS 6 Xposition Yposition Zposition Zrotation Xrotation Yrotation
                    JOINT RightFinger02
                    {
                      OFFSET 0.8229 -2.3 1.6571
                      CHANNELS 6 Xposition Yposition Zposition Zrotation Xrotation Yrotation
                      End Site
                      {
                        OFFSET 0.5822 -1.6914 1.1582
                      }
                    }
                  }
                }
              }
            }
          }
        }
      }
    }
  }
  JOINT RightHip
  {
    OFFSET -9.412 3.9771 -0.7758
    CHANNELS 6 Xposition Yposition Zposition Zrotation Xrotation Yrotation
    JOINT RightKnee
    {
      OFFSET -0.7531 -40.938 0
      CHANNELS 6 Xposition Yposition Zposition Zrotation Xrotation Yrotation
      JOINT RightAnkle
      {
        OFFSET 0 -40.1986 0
        CHANNELS 6 Xposition Yposition Zposition Zrotation Xrotation Yrotation
        JOINT RightToe
        {
          OFFSET 0 -4.4182 9.239
          CHANNELS 6 Xposition Yposition Zposition Zrotation Xrotation Yrotation
          End Site
          {
            OFFSET 0 0 6.1981
          }
        }
      }
    }
  }
  JOINT LeftHip
  {
    OFFSET 9.4119 3.9773 -0.7758
    CHANNELS 6 Xposition Yposition Zposition Zrotation Xrotation Yrotation
    JOINT LeftKnee
    {
      OFFSET 0.7532 -40.9383 0
      CHANNELS 6 Xposition Yposition Zposition Zrotation Xrotation Yrotation
      JOINT LeftAnkle
      {
        OFFSET 0 -40.1986 0
        CHANNELS 6 Xposition Yposition Zposition Zrotation Xrotation Yrotation
        JOINT LeftToe
        {
          OFFSET 0 -4.4182 9.239
          CHANNELS 6 Xposition Yposition Zposition Zrotation Xrotation Yrotation
          End Site
          {
            OFFSET 0 0 6.1981
          }
        }
      }
    }
  }
}
MOTION
Frames:	4
Frame Time:	0.0333333
5.72205e-005 65.662 3.42586 0 0 -0 0 8.7983 -4.7612 0 0 -0 0 8.0291 0.4195 0 0 -0 0 9.9351 -2.2114 0 0 -0 0 22.3885 -0.4656 0 0 -0 -0.0001 12.643 3.4389 0 0 -0 2.2603 21.606 7.4023 0 0 -12.5014 13.5163 -1.1332 -5.0146 88.1196 14.2451 10.6914 -0.0995 -28.05 -0.2431 -0.00160068 -0.00239207 0.000740045 0.0679 -23.3996 -0.1402 -8.4365e-005 7.00714e-005 -9.52055e-007 0.7932 -9.069 2.5189 9.93923e-017 -1.98785e-016 -1.59028e-015 -0.8272 -3.3923 0.5977 9.93923e-017 -5.96354e-016 -1.59028e-015 -0.5649 -2.3158 0.4082 -9.93923e-017 -5.96354e-016 -1.59028e-015 0.9159 -9.2044 0.2193 9.93923e-017 -1.98785e-016 -1.59028e-015 0.0117 -4.1944 -0.0248 -0.0128176 0.00232552 8.52707e-005 0.0071 -2.3249 -0.0142 9.93923e-017 5.96354e-016 -0 0.6113 -8.7231 -2.0637 9.93923e-017 -1.98785e-016 -1.59028e-015 -0.1927 -3.8059 -0.2383 -0.0160551 0.00299681 0.000857156 -0.1091 -2.1688 -0.1362 -2.48481e-016 0 3.18055e-015 -0.6151 -8.0947 -3.5641 9.93923e-017 -1.98785e-016 -1.59028e-015 -0.4882 -2.341 -0.6462 -0.0125865 0.0031206 0.00282719 -0.3575 -1.7167 -0.4742 0 1.98785e-016 -0 -1.42 -1.8761 1.4223 9.93923e-017 -1.98785e-016 -1.59028e-015 -1.1471 -3.4929 2.6334 9.93923e-017 -5.96354e-016 -1.59028e-015 -0.823 -2.3 1.6571 -9.93923e-017 -5.96354e-016 -1.59028e-015 -2.2603 21.606 7.4023 -0.865644 0.16582 7.03859 -13.5187 -1.1334 -5.0155 -88.0329 10.2057 -10.5567 0.0994 -28.0499 -0.2431 0.0015593 -0.00248883 -0.000788628 -0.0679 -23.3996 -0.1402 7.87605e-005 4.10553e-005 1.24965e-005 -0.7932 -9.0691 2.5189 -3.97569e-016 -7.95139e-016 3.18055e-015 0.8272 -3.3923 0.5977 -1.98785e-016 -3.97569e-016 3.18055e-015 0.565 -2.3158 0.4082 -1.98785e-016 0 3.18055e-015 -0.916 -9.2044 0.2193 -3.97569e-016 -7.95139e-016 3.18055e-015 -0.0117 -4.1944 -0.0248 0.0129473 0.00231697 -8.70038e-005 -0.0071 -2.3249 -0.0142 9.93923e-017 -7.95139e-016 1.59028e-015 -0.6113 -8.7231 -2.0637 -3.97569e-016 -7.95139e-016 3.18055e-015 0.1927 -3.8059 -0.2383 0.0163314 0.00303369 -0.000872333 0.1091 -2.1688 -0.1362 3.97569e-016 7.95139e-016 -3.18055e-015 0.6151 -8.0947 -3.564 -3.97569e-016 -7.95139e-016 3.18055e-015 0.4882 -2.341 -0.6462 0.0145763 0.00367772 -0.00326275 0.3574 -1.7166 -0.4742 9.93923e-017 -3.97569e-016 -0 1.4199 -1.8761 1.4221 -3.97569e-016 -7.95139e-016 3.18055e-015 1.1472 -3.4929 2.6336 -1.98785e-016 -3.97569e-016 3.18055e-015 0.8229 -2.3 1.6571 -1.98785e-016 0 3.18055e-015 -9.412 3.9771 -0.7758 3.42482 1.32465 -0.0626183 -0.7531 -40.938 0 0.000117508 0.717283 0.000978199 0 -40.1986 0 -3.4257 -2.04197 -0.0604716 8.88178e-016 -4.4182 9.239 6.47761e-025 0 -0 9.4119 3.9773 -0.7758 -3.42483 1.34017 0.0627307 0.7532 -40.9383 -2.22045e-016 -0.000193936 0.682302 -0.0013703 -8.88179e-016 -40.1986 0 3.42574 -2.02253 0.0595886 -8.88178e-016 -4.4182 9.239 -8.45714e-024 0 -7.40531e-025 
29.5115 13.946 9.39339 -1.76109e-009 -18.5193 3.33449e-008 7.10543e-015 8.7983 -4.7612 -0.00723151 -2.26974 -0.0965334 0 8.0291 0.4195 -0.0183153 -4.53948 -0.193583 -3.55271e-015 9.9351 -2.2114 -0.0183153 -4.53948 -0.193583 -7.10543e-015 22.3885 -0.4656 -1.47739e-007 13.3553 6.60716e-007 -0.0001 12.643 3.4389 -5.51956e-008 6.70749 2.87437e-007 2.2603 21.606 7.4023 -10.2384 10.6533 -9.8505 13.5163 -1.1332 -5.0146 47.2314 -19.9781 27.1479 -0.0995 -28.05 -0.2431 1.8066 -14.9352 -24.2777 0.0679 -23.3996 -0.1402 -39.4625 13.0652 -6.81611 0.7932 -9.069 2.5189 3.53113e-031 -3.18055e-015 6.36111e-015 -0.8272 -3.3923 0.5977 -3.18055e-015 -3.18055e-015 -3.18055e-015 -0.5649 -2.3158 0.4082 -9.54166e-015 1.59028e-014 3.18055e-015 0.9159 -9.2044 0.2193 3.53113e-031 -3.18055e-015 6.36111e-015 0.0117 -4.1944 -0.0248 -0.0128979 0.00233284 7.734e-005 0.0071 -2.3249 -0.0142 -6.36111e-015 -3.18055e-015 3.18055e-015 0.6113 -8.7231 -2.0637 3.53113e-031 -3.18055e-015 6.36111e-015 -0.1927 -3.8059 -0.2383 -0.0161235 0.0030031 0.000851214 -0.1091 -2.1688 -0.1362 7.06225e-031 -6.36111e-015 6.36111e-015 -0.6151 -8.0947 -3.5641 3.53113e-031 -3.18055e-015 6.36111e-015 -0.4882 -2.341 -0.6462 -0.012514 0.0031091 0.00280966 -0.3575 -1.7167 -0.4742 -3.18055e-015 -3.18055e-015 6.36111e-015 -1.42 -1.8761 1.4223 3.53113e-031 -3.18055e-015 6.36111e-015 -1.1471 -3.4929 2.6334 -3.18055e-015 -3.18055e-015 -3.18055e-015 -0.823 -2.3 1.6571 -9.54166e-015 1.59028e-014 3.18055e-015 -2.2603 21.606 7.4023 9.39246 10.6469 4.71574 -13.5187 -1.1334 -5.0155 -45.702 -22.2707 -23.5 0.0994 -28.0499 -0.2431 -2.41468 -15.8411 23.7477 -0.0679 -23.3996 -0.1402 39.3334 13.5672 7.97986 -0.793201 -9.0691 2.5189 6.36111e-015 0 -1.27222e-014 0.827201 -3.3923 0.5977 -4.53505e-007 -1.10426e-005 9.60529e-006 0.565 -2.3158 0.4082 3.18055e-015 -3.18055e-015 -0 -0.916001 -9.2044 0.2193 6.36111e-015 0 -1.27222e-014 -0.0117 -4.1944 -0.0248 0.0129511 0.00231348 -8.35428e-005 -0.0071 -2.3249 -0.0142 3.18055e-015 0 -3.18055e-015 -0.6113 -8.7231 -2.0637 6.36111e-015 0 -1.27222e-014 0.1927 -3.8059 -0.2383 0.0163278 0.00302727 -0.000871569 0.1091 -2.1688 -0.1362 -3.18055e-015 9.54166e-015 -3.18055e-015 0.6151 -8.0947 -3.564 6.36111e-015 0 -1.27222e-014 0.4882 -2.341 -0.6462 0.0145803 0.00368091 -0.00327053 0.3574 -1.7166 -0.4742 2.06074e-006 3.90765e-006 2.30917e-006 1.4199 -1.8761 1.4221 6.36111e-015 0 -1.27222e-014 1.1472 -3.4929 2.6336 -4.53505e-007 -1.10426e-005 9.60529e-006 0.8229 -2.3 1.6571 3.18055e-015 -3.18055e-015 -0 -9.412 3.9771 -0.7758 -16.8993 -65.7015 -76.1467 -0.7531 -40.938 1.77636e-015 1.34792 40.1163 -1.53246 -3.55271e-015 -40.1986 0 -3.75794 7.76811 -5.42842 0 -4.4182 9.239 3.85391e-007 -1.37775e-006 -1.73808e-006 9.4119 3.9773 -0.7758 16.8799 -65.6921 76.11 0.7532 -40.9383 7.10543e-015 -1.3782 40.1242 1.53915 -2.66454e-015 -40.1986 0 3.7595 7.77315 5.43266 0 -4.4182 9.239 3.18055e-015 0 3.18055e-015 
42.7916 -9.69671 10.817 -6.56117e-009 -26.8531 -1.22607e-007 7.10543e-015 8.7983 -4.7612 -0.0114521 -3.20732 -0.140319 -7.10543e-015 8.0291 0.4195 -0.0308583 -6.41461 -0.281945 7.10543e-015 9.9351 -2.2114 -0.0308583 -6.41461 -0.281945 0 22.3885 -0.4656 1.55022e-006 19.2501 -5.67634e-006 -0.0001 12.643 3.4389 -1.47877e-008 9.51859 -2.86378e-007 2.2603 21.606 7.4023 -15.0542 15.1166 -8.87705 13.5163 -1.1332 -5.0146 32.1012 -36.8844 34.9891 -0.0995 -28.05 -0.2431 2.60206 -21.6256 -35.2771 0.0679 -23.3996 -0.1402 -57.7211 18.1224 -8.32827 0.7932 -9.069 2.5189 -6.36111e-015 -2.38542e-015 3.18055e-015 -0.8272 -3.3923 0.5977 1.61301e-006 -3.05888e-006 2.31317e-006 -0.5649 -2.3158 0.4082 -1.61301e-006 3.05888e-006 -2.31317e-006 0.9159 -9.2044 0.2193 -6.36111e-015 -2.38542e-015 3.18055e-015 0.0117 -4.1944 -0.0248 -0.0127675 0.00231322 8.26283e-005 0.0071 -2.3249 -0.0142 -6.4447e-006 -4.86995e-006 -4.01561e-006 0.6113 -8.7231 -2.0637 -6.36111e-015 -2.38542e-015 3.18055e-015 -0.1927 -3.8059 -0.2383 -0.0160541 0.00300227 0.000867203 -0.1091 -2.1688 -0.1362 3.18055e-015 7.95139e-016 -1.59028e-015 -0.6151 -8.0947 -3.5641 -6.36111e-015 -2.38542e-015 3.18055e-015 -0.4882 -2.341 -0.6462 -0.0125922 0.00312933 0.00284083 -0.3575 -1.7167 -0.4742 6.36111e-015 9.54166e-015 -1.11319e-014 -1.42 -1.8761 1.4223 -6.36111e-015 -2.38542e-015 3.18055e-015 -1.1471 -3.4929 2.6334 1.61301e-006 -3.05888e-006 2.31317e-006 -0.823 -2.3 1.6571 -1.61301e-006 3.05888e-006 -2.31317e-006 -2.2603 21.606 7.4023 14.1866 15.0379 3.89868 -13.5187 -1.1334 -5.0155 -28.361 -37.8396 -29.4084 0.0994 -28.0499 -0.2431 -3.45987 -22.9837 34.4498 -0.0679 -23.3996 -0.1402 57.4807 19.037 9.94297 -0.7932 -9.0691 2.5189 1.42259e-007 2.38609e-006 3.09895e-006 0.8272 -3.3923 0.5977 -1.42259e-007 -2.38609e-006 -3.09895e-006 0.565 -2.3158 0.4082 1.42259e-007 2.38609e-006 3.09895e-006 -0.916 -9.2044 0.2193 1.42259e-007 2.38609e-006 3.09895e-006 -0.0117 -4.1944 -0.0248 0.0129224 0.00230922 -8.38623e-005 -0.0071 -2.3249 -0.0142 6.36111e-015 -6.36111e-015 3.18055e-015 -0.6113 -8.7231 -2.0637 1.42259e-007 2.38609e-006 3.09895e-006 0.1927 -3.8059 -0.2383 0.016296 0.0030316 -0.000878762 0.1091 -2.1688 -0.1362 4.00433e-006 3.5289e-006 3.47179e-006 0.6151 -8.0947 -3.564 1.42259e-007 2.38609e-006 3.09895e-006 0.4882 -2.341 -0.6462 0.0145494 0.00366177 -0.00325062 0.3574 -1.7166 -0.4742 3.44138e-006 1.73984e-006 2.6122e-006 1.4199 -1.8761 1.4221 1.42259e-007 2.38609e-006 3.09895e-006 1.1472 -3.4929 2.6336 -1.42259e-007 -2.38609e-006 -3.09895e-006 0.8229 -2.3 1.6571 1.42259e-007 2.38609e-006 3.09895e-006 -9.412 3.9771 -0.7758 -55.3264 -44.414 -126.63 -0.7531 -40.938 7.10543e-015 2.27639 56.6965 -2.55005 0 -40.1986 -3.55271e-015 -3.11601 13.5075 -8.01097 0 -4.4182 9.239 1.17861e-006 -2.58273e-006 2.79992e-006 9.4119 3.9773 -0.7758 55.3144 -44.429 126.597 0.7532 -40.9383 7.10543e-015 -2.32331 56.7012 2.56244 -1.77636e-015 -40.1986 0 3.1167 13.5142 8.01746 -1.77636e-015 -4.4182 9.239 -5.73819e-006 -1.68228e-006 -7.87339e-006 
39.8405 -4.37829 10.4385 -1.96732e-008 -25.0011 -7.46145e-008 7.10543e-015 8.7983 -4.7612 -0.0113765 -2.81264 -0.130444 0 8.0291 0.4195 -0.0292259 -5.62523 -0.261921 0 9.9351 -2.2114 -0.0292258 -5.62524 -0.261921 0 22.3885 -0.4656 8.2686e-007 17.6847 -3.4294e-006 -0.0001 12.643 3.4389 4.2105e-008 8.43322 1.92254e-008 2.2603 21.606 7.4023 -13.7188 13.4283 -9.74505 13.5163 -1.1332 -5.0146 35.6214 -33.0761 33.3945 -0.0995 -28.05 -0.2431 2.45842 -19.7772 -32.8346 0.0679 -23.3996 -0.1402 -53.4904 16.6387 -7.99144 0.7932 -9.069 2.5189 1.76556e-031 -3.18055e-015 3.18055e-015 -0.8272 -3.3923 0.5977 7.4447e-006 1.57131e-005 3.61031e-006 -0.5649 -2.3158 0.4082 3.18055e-015 -6.36111e-015 3.18055e-015 0.9159 -9.2044 0.2193 1.76556e-031 -3.18055e-015 3.18055e-015 0.0117 -4.1944 -0.0248 -0.0127757 0.00232281 9.71919e-005 0.0071 -2.3249 -0.0142 -2.93815e-006 -1.02755e-005 -8.2264e-006 0.6113 -8.7231 -2.0637 1.76556e-031 -3.18055e-015 3.18055e-015 -0.1927 -3.8059 -0.2383 -0.0160824 0.00300623 0.000858671 -0.1091 -2.1688 -0.1362 -3.70547e-006 3.36599e-006 -3.46177e-006 -0.6151 -8.0947 -3.5641 1.76556e-031 -3.18055e-015 3.18055e-015 -0.4882 -2.341 -0.6462 -0.0126204 0.00313855 0.00284782 -0.3575 -1.7167 -0.4742 1.12736e-006 1.7338e-006 -1.15396e-006 -1.42 -1.8761 1.4223 1.76556e-031 -3.18055e-015 3.18055e-015 -1.1471 -3.4929 2.6334 7.4447e-006 1.57131e-005 3.61031e-006 -0.823 -2.3 1.6571 3.18055e-015 -6.36111e-015 3.18055e-015 -2.2603 21.606 7.4023 12.8713 13.3696 4.73084 -13.5187 -1.1334 -5.0155 -32.4783 -34.3667 -28.3292 0.0994 -28.0499 -0.2431 -3.26063 -21.0277 32.0891 -0.0679 -23.3996 -0.1402 53.2777 17.4352 9.49231 -0.7932 -9.0691 2.5189 3.18055e-015 1.59028e-015 -0 0.8272 -3.3923 0.5977 6.36111e-015 -1.59028e-015 -3.18055e-015 0.565 -2.3158 0.4082 -3.18055e-015 3.18055e-015 -0 -0.916 -9.2044 0.2193 3.18055e-015 1.59028e-015 -0 -0.0117 -4.1944 -0.0248 0.0129766 0.00229951 -7.967e-005 -0.0071 -2.3249 -0.0142 3.53113e-031 -3.18055e-015 6.36111e-015 -0.6113 -8.7231 -2.0637 3.18055e-015 1.59028e-015 -0 0.1927 -3.8059 -0.2383 0.0163263 0.00304017 -0.000878606 0.1091 -2.1688 -0.1362 6.36111e-015 0 6.36111e-015 0.6151 -8.0947 -3.564 3.18055e-015 1.59028e-015 -0 0.4882 -2.341 -0.6462 0.0145536 0.00367707 -0.00325136 0.3574 -1.7166 -0.4742 4.41391e-032 1.59028e-015 -1.59028e-015 1.4199 -1.8761 1.4221 3.18055e-015 1.59028e-015 -0 1.1472 -3.4929 2.6336 6.36111e-015 -1.59028e-015 -3.18055e-015 0.8229 -2.3 1.6571 -3.18055e-015 3.18055e-015 -0 -9.412 3.9771 -0.7758 -52.2921 -50.8981 -121.731 -0.7531 -40.938 -7.10543e-015 2.07295 52.8362 -2.29305 0 -40.1986 -1.06581e-014 -3.25035 12.1957 -7.40397 -1.77636e-015 -4.4182 9.239 -1.59028e-015 -6.36111e-015 -1.59028e-015 9.4119 3.9773 -0.7758 52.269 -50.9115 121.689 0.7532 -40.9383 2.13163e-014 -2.11428 52.8352 2.30179 1.77636e-015 -40.1986 0 3.25139 12.202 7.40996 0 -4.4182 9.239 4.77083e-015 6.36111e-015 -0 
